<?xml version="1.0" encoding="utf-8"?>
<svg viewBox="2.522 17.521 128.309 44.144" xmlns="http://www.w3.org/2000/svg">
  <g transform="matrix(1, 0, 0, 1, -4.0691, 4.361248)">
    <path d="M 7.591 27.134 L 50.187 22.141 C 84.259 19.138 112.24 21.282 121.547 28.874 C 130.349 36.054 116.509 49.706 106.484 56.303 C 171.306 24.26 114.293 -2.834 7.591 27.134 Z" style="fill: rgb(42, 128, 214);"/>
    <path d="M 40.555 83.414 C 32.342 83.414 25.925 81.207 21.305 76.794 C 16.685 72.381 14.375 66.144 14.375 58.084 C 14.375 52.591 15.465 47.741 17.645 43.534 C 19.825 39.321 22.918 36.071 26.925 33.784 C 30.925 31.504 35.545 30.364 40.785 30.364 C 45.045 30.364 49.152 31.134 53.105 32.674 L 51.025 42.604 C 47.532 41.011 44.142 40.214 40.855 40.214 C 36.188 40.214 32.495 41.744 29.775 44.804 C 27.055 47.857 25.695 51.924 25.695 57.004 C 25.695 62.191 27.132 66.221 30.005 69.094 C 32.878 71.967 36.855 73.404 41.935 73.404 C 45.275 73.404 48.508 72.864 51.635 71.784 L 53.335 81.254 C 49.588 82.694 45.328 83.414 40.555 83.414 ZM 59.478 82.414 L 78.268 31.134 L 91.668 31.134 L 110.678 82.414 L 99.128 82.414 L 94.978 70.714 L 74.798 70.714 L 70.878 82.414 L 59.478 82.414 Z M 78.038 61.164 L 91.668 61.164 L 84.728 41.524 L 78.038 61.164 ZM 126.674 82.494 C 123.034 82.494 120.314 82.467 118.514 82.414 L 118.514 31.134 C 120.72 31.081 123.98 31.054 128.294 31.054 C 132.66 31.054 135.92 31.081 138.074 31.134 C 143.107 31.187 147.484 32.201 151.204 34.174 C 154.924 36.147 157.797 38.957 159.824 42.604 C 161.85 46.251 162.864 50.511 162.864 55.384 C 162.864 60.724 161.697 65.421 159.364 69.474 C 157.03 73.534 153.747 76.694 149.514 78.954 C 145.274 81.207 140.357 82.361 134.764 82.414 C 132.964 82.467 130.267 82.494 126.674 82.494 Z M 129.684 72.714 L 134.684 72.714 C 139.87 72.714 143.954 71.201 146.934 68.174 C 149.907 65.141 151.394 60.981 151.394 55.694 C 151.394 50.921 150.124 47.251 147.584 44.684 C 145.044 42.117 141.387 40.834 136.614 40.834 L 129.684 40.834 L 129.684 72.714 ZM 170.467 82.414 L 170.467 74.024 L 194.957 40.834 L 171.167 40.834 L 171.167 31.134 L 208.587 31.134 L 208.587 39.914 L 184.257 72.714 L 208.587 72.714 L 208.587 82.414 L 170.467 82.414 ZM 242.068 83.414 C 237.035 83.414 232.595 82.311 228.748 80.104 C 224.895 77.897 221.905 74.791 219.778 70.784 C 217.645 66.784 216.578 62.191 216.578 57.004 C 216.578 51.771 217.632 47.151 219.738 43.144 C 221.838 39.137 224.815 36.031 228.668 33.824 C 232.515 31.617 236.982 30.514 242.068 30.514 C 247.095 30.514 251.535 31.604 255.388 33.784 C 259.235 35.971 262.212 39.041 264.318 42.994 C 266.425 46.947 267.478 51.514 267.478 56.694 C 267.478 61.981 266.425 66.641 264.318 70.674 C 262.212 74.701 259.235 77.831 255.388 80.064 C 251.535 82.297 247.095 83.414 242.068 83.414 Z M 242.068 73.634 C 246.275 73.634 249.648 72.121 252.188 69.094 C 254.728 66.067 255.998 62.037 255.998 57.004 C 255.998 53.717 255.422 50.804 254.268 48.264 C 253.115 45.724 251.472 43.774 249.338 42.414 C 247.212 41.054 244.788 40.374 242.068 40.374 C 239.348 40.374 236.922 41.054 234.788 42.414 C 232.655 43.774 231.012 45.724 229.858 48.264 C 228.705 50.804 228.128 53.717 228.128 57.004 C 228.128 60.291 228.705 63.191 229.858 65.704 C 231.012 68.217 232.642 70.167 234.748 71.554 C 236.855 72.941 239.295 73.634 242.068 73.634 ZM 277.926 82.414 L 277.926 31.134 L 291.016 31.134 L 312.266 67.094 L 312.266 31.134 L 322.506 31.134 L 322.506 82.414 L 309.576 82.414 L 288.166 46.224 L 288.166 82.414 L 277.926 82.414 ZM 335.271 82.414 L 335.271 31.134 L 366.461 31.134 L 366.461 40.834 L 346.281 40.834 L 346.281 51.074 L 362.991 51.074 L 362.991 60.464 L 346.281 60.464 L 346.281 72.714 L 366.461 72.714 L 366.461 82.414 L 335.271 82.414 Z" transform="matrix(0.26331597566604614, 0, 0, 0.2632869780063629, 13.789199829101562, 21.822986602783203)" style="text-transform: uppercase; white-space: pre;"/>
    <path d="M 42.303 53.944 L 40.093 53.944 L 40.093 48.274 L 42.293 48.274 L 42.293 48.864 L 40.883 48.864 L 40.883 50.734 L 42.023 50.734 L 42.023 51.294 L 40.883 51.294 L 40.883 53.374 L 42.303 53.374 L 42.303 53.944 ZM 43.624 53.944 L 42.874 53.944 L 42.874 49.894 L 43.624 49.894 L 43.624 50.294 C 43.757 50.167 43.904 50.061 44.064 49.974 C 44.23 49.887 44.41 49.844 44.604 49.844 C 44.77 49.844 44.897 49.884 44.984 49.964 C 45.07 50.051 45.13 50.157 45.164 50.284 C 45.197 50.411 45.214 50.537 45.214 50.664 L 45.214 53.944 L 44.464 53.944 L 44.464 50.884 C 44.464 50.737 44.444 50.624 44.404 50.544 C 44.364 50.471 44.277 50.434 44.144 50.434 C 44.064 50.434 43.977 50.457 43.884 50.504 C 43.79 50.551 43.704 50.611 43.624 50.684 L 43.624 53.944 ZM 46.988 55.194 C 46.741 55.194 46.521 55.171 46.328 55.124 C 46.134 55.071 45.981 54.987 45.868 54.874 C 45.754 54.761 45.698 54.614 45.698 54.434 C 45.698 54.301 45.724 54.187 45.778 54.094 C 45.838 53.994 45.911 53.907 45.998 53.834 C 46.084 53.761 46.178 53.701 46.278 53.654 C 46.151 53.621 46.054 53.561 45.988 53.474 C 45.921 53.394 45.888 53.311 45.888 53.224 C 45.888 53.071 45.928 52.941 46.008 52.834 C 46.088 52.727 46.198 52.611 46.338 52.484 C 46.184 52.371 46.068 52.224 45.988 52.044 C 45.908 51.857 45.868 51.604 45.868 51.284 C 45.868 50.964 45.911 50.701 45.998 50.494 C 46.084 50.281 46.211 50.117 46.378 50.004 C 46.551 49.897 46.761 49.844 47.008 49.844 C 47.228 49.844 47.404 49.881 47.538 49.954 C 47.671 50.027 47.771 50.141 47.838 50.294 C 47.864 50.254 47.928 50.187 48.028 50.094 C 48.134 50.007 48.254 49.934 48.388 49.874 L 48.498 49.824 L 48.688 50.304 C 48.628 50.311 48.548 50.334 48.448 50.374 C 48.348 50.407 48.254 50.441 48.168 50.474 C 48.081 50.507 48.024 50.537 47.998 50.564 C 48.031 50.644 48.061 50.757 48.088 50.904 C 48.114 51.057 48.128 51.191 48.128 51.304 C 48.128 51.577 48.091 51.821 48.018 52.034 C 47.951 52.241 47.838 52.404 47.678 52.524 C 47.518 52.644 47.294 52.704 47.008 52.704 C 46.948 52.704 46.881 52.701 46.808 52.694 C 46.741 52.681 46.678 52.667 46.618 52.654 C 46.591 52.694 46.564 52.744 46.538 52.804 C 46.504 52.857 46.488 52.911 46.488 52.964 C 46.488 53.017 46.514 53.057 46.568 53.084 C 46.621 53.117 46.708 53.137 46.828 53.144 L 47.458 53.204 C 47.771 53.231 48.004 53.324 48.158 53.484 C 48.311 53.651 48.388 53.884 48.388 54.184 C 48.388 54.404 48.338 54.591 48.238 54.744 C 48.138 54.897 47.984 55.011 47.778 55.084 C 47.564 55.157 47.301 55.194 46.988 55.194 Z M 47.038 54.614 C 47.304 54.614 47.501 54.581 47.628 54.514 C 47.754 54.454 47.818 54.354 47.818 54.214 C 47.818 54.127 47.804 54.057 47.778 54.004 C 47.744 53.944 47.688 53.897 47.608 53.864 C 47.528 53.831 47.414 53.807 47.268 53.794 L 46.628 53.744 C 46.574 53.791 46.524 53.841 46.478 53.894 C 46.431 53.947 46.394 54.004 46.368 54.064 C 46.341 54.117 46.328 54.177 46.328 54.244 C 46.328 54.364 46.378 54.454 46.478 54.514 C 46.584 54.581 46.771 54.614 47.038 54.614 Z M 47.008 52.184 C 47.114 52.184 47.198 52.164 47.258 52.124 C 47.324 52.084 47.374 52.024 47.408 51.944 C 47.441 51.871 47.461 51.777 47.468 51.664 C 47.481 51.551 47.488 51.424 47.488 51.284 C 47.488 51.144 47.481 51.017 47.468 50.904 C 47.461 50.791 47.441 50.691 47.408 50.604 C 47.381 50.524 47.334 50.464 47.268 50.424 C 47.208 50.384 47.124 50.364 47.018 50.364 C 46.911 50.364 46.824 50.384 46.758 50.424 C 46.691 50.464 46.641 50.524 46.608 50.604 C 46.574 50.677 46.551 50.771 46.538 50.884 C 46.524 51.004 46.518 51.137 46.518 51.284 C 46.518 51.411 46.524 51.527 46.538 51.634 C 46.544 51.747 46.568 51.844 46.608 51.924 C 46.641 52.004 46.691 52.067 46.758 52.114 C 46.818 52.161 46.901 52.184 47.008 52.184 ZM 49.774 53.944 L 49.024 53.944 L 49.024 49.894 L 49.774 49.894 L 49.774 53.944 Z M 49.774 49.294 L 49.024 49.294 L 49.024 48.514 L 49.774 48.514 L 49.774 49.294 ZM 51.322 53.944 L 50.572 53.944 L 50.572 49.894 L 51.322 49.894 L 51.322 50.294 C 51.455 50.167 51.602 50.061 51.762 49.974 C 51.929 49.887 52.109 49.844 52.302 49.844 C 52.469 49.844 52.595 49.884 52.682 49.964 C 52.769 50.051 52.829 50.157 52.862 50.284 C 52.895 50.411 52.912 50.537 52.912 50.664 L 52.912 53.944 L 52.162 53.944 L 52.162 50.884 C 52.162 50.737 52.142 50.624 52.102 50.544 C 52.062 50.471 51.975 50.434 51.842 50.434 C 51.762 50.434 51.675 50.457 51.582 50.504 C 51.489 50.551 51.402 50.611 51.322 50.684 L 51.322 53.944 ZM 54.756 54.004 C 54.436 54.004 54.189 53.941 54.016 53.814 C 53.843 53.687 53.723 53.504 53.656 53.264 C 53.589 53.024 53.556 52.731 53.556 52.384 L 53.556 51.464 C 53.556 51.104 53.593 50.804 53.666 50.564 C 53.733 50.324 53.853 50.144 54.026 50.024 C 54.206 49.904 54.449 49.844 54.756 49.844 C 55.096 49.844 55.346 49.914 55.506 50.054 C 55.666 50.194 55.773 50.394 55.826 50.654 C 55.879 50.921 55.906 51.237 55.906 51.604 L 55.906 51.934 L 54.306 51.934 L 54.306 52.744 C 54.306 52.911 54.323 53.044 54.356 53.144 C 54.383 53.251 54.429 53.327 54.496 53.374 C 54.563 53.421 54.653 53.444 54.766 53.444 C 54.873 53.444 54.956 53.417 55.016 53.364 C 55.076 53.311 55.116 53.234 55.136 53.134 C 55.156 53.034 55.166 52.917 55.166 52.784 L 55.166 52.534 L 55.896 52.534 L 55.896 52.694 C 55.896 53.101 55.809 53.421 55.636 53.654 C 55.463 53.887 55.169 54.004 54.756 54.004 Z M 54.306 51.314 L 54.306 51.524 L 55.166 51.524 L 55.166 51.164 C 55.166 50.997 55.156 50.857 55.136 50.744 C 55.116 50.631 55.079 50.544 55.026 50.484 C 54.966 50.424 54.873 50.394 54.746 50.394 C 54.626 50.394 54.533 50.424 54.466 50.484 C 54.406 50.537 54.363 50.631 54.336 50.764 C 54.316 50.897 54.306 51.081 54.306 51.314 ZM 57.694 54.004 C 57.374 54.004 57.128 53.941 56.954 53.814 C 56.781 53.687 56.661 53.504 56.594 53.264 C 56.528 53.024 56.494 52.731 56.494 52.384 L 56.494 51.464 C 56.494 51.104 56.531 50.804 56.604 50.564 C 56.671 50.324 56.791 50.144 56.964 50.024 C 57.144 49.904 57.388 49.844 57.694 49.844 C 58.034 49.844 58.284 49.914 58.444 50.054 C 58.604 50.194 58.711 50.394 58.764 50.654 C 58.818 50.921 58.844 51.237 58.844 51.604 L 58.844 51.934 L 57.244 51.934 L 57.244 52.744 C 57.244 52.911 57.261 53.044 57.294 53.144 C 57.321 53.251 57.368 53.327 57.434 53.374 C 57.501 53.421 57.591 53.444 57.704 53.444 C 57.811 53.444 57.894 53.417 57.954 53.364 C 58.014 53.311 58.054 53.234 58.074 53.134 C 58.094 53.034 58.104 52.917 58.104 52.784 L 58.104 52.534 L 58.834 52.534 L 58.834 52.694 C 58.834 53.101 58.748 53.421 58.574 53.654 C 58.401 53.887 58.108 54.004 57.694 54.004 Z M 57.244 51.314 L 57.244 51.524 L 58.104 51.524 L 58.104 51.164 C 58.104 50.997 58.094 50.857 58.074 50.744 C 58.054 50.631 58.018 50.544 57.964 50.484 C 57.904 50.424 57.811 50.394 57.684 50.394 C 57.564 50.394 57.471 50.424 57.404 50.484 C 57.344 50.537 57.301 50.631 57.274 50.764 C 57.254 50.897 57.244 51.081 57.244 51.314 ZM 60.283 53.944 L 59.533 53.944 L 59.533 49.894 L 60.283 49.894 L 60.283 50.474 C 60.429 50.227 60.579 50.061 60.733 49.974 C 60.879 49.894 61.026 49.854 61.173 49.854 C 61.193 49.854 61.213 49.854 61.233 49.854 C 61.246 49.854 61.266 49.854 61.293 49.854 L 61.293 50.684 C 61.239 50.657 61.176 50.637 61.103 50.624 C 61.029 50.604 60.956 50.594 60.883 50.594 C 60.763 50.594 60.656 50.621 60.563 50.674 C 60.469 50.727 60.376 50.834 60.283 50.994 L 60.283 53.944 ZM 62.873 54.004 C 62.553 54.004 62.306 53.941 62.133 53.814 C 61.96 53.687 61.84 53.504 61.773 53.264 C 61.706 53.024 61.673 52.731 61.673 52.384 L 61.673 51.464 C 61.673 51.104 61.71 50.804 61.783 50.564 C 61.85 50.324 61.97 50.144 62.143 50.024 C 62.323 49.904 62.566 49.844 62.873 49.844 C 63.213 49.844 63.463 49.914 63.623 50.054 C 63.783 50.194 63.89 50.394 63.943 50.654 C 63.996 50.921 64.023 51.237 64.023 51.604 L 64.023 51.934 L 62.423 51.934 L 62.423 52.744 C 62.423 52.911 62.44 53.044 62.473 53.144 C 62.5 53.251 62.546 53.327 62.613 53.374 C 62.68 53.421 62.77 53.444 62.883 53.444 C 62.99 53.444 63.073 53.417 63.133 53.364 C 63.193 53.311 63.233 53.234 63.253 53.134 C 63.273 53.034 63.283 52.917 63.283 52.784 L 63.283 52.534 L 64.013 52.534 L 64.013 52.694 C 64.013 53.101 63.926 53.421 63.753 53.654 C 63.58 53.887 63.286 54.004 62.873 54.004 Z M 62.423 51.314 L 62.423 51.524 L 63.283 51.524 L 63.283 51.164 C 63.283 50.997 63.273 50.857 63.253 50.744 C 63.233 50.631 63.196 50.544 63.143 50.484 C 63.083 50.424 62.99 50.394 62.863 50.394 C 62.743 50.394 62.65 50.424 62.583 50.484 C 62.523 50.537 62.48 50.631 62.453 50.764 C 62.433 50.897 62.423 51.081 62.423 51.314 ZM 65.631 54.004 C 65.291 54.004 65.035 53.877 64.861 53.624 C 64.695 53.377 64.611 52.954 64.611 52.354 L 64.611 51.574 C 64.611 51.267 64.638 50.981 64.691 50.714 C 64.745 50.447 64.841 50.237 64.981 50.084 C 65.121 49.924 65.328 49.844 65.601 49.844 C 65.741 49.844 65.868 49.874 65.981 49.934 C 66.088 49.994 66.188 50.067 66.281 50.154 L 66.281 48.274 L 67.031 48.274 L 67.031 53.944 L 66.281 53.944 L 66.281 53.684 C 66.188 53.777 66.091 53.854 65.991 53.914 C 65.885 53.974 65.765 54.004 65.631 54.004 Z M 65.821 53.414 C 65.888 53.414 65.961 53.401 66.041 53.374 C 66.121 53.347 66.201 53.307 66.281 53.254 L 66.281 50.604 C 66.215 50.557 66.141 50.517 66.061 50.484 C 65.981 50.451 65.895 50.434 65.801 50.434 C 65.628 50.434 65.511 50.514 65.451 50.674 C 65.391 50.841 65.361 51.041 65.361 51.274 L 65.361 52.414 C 65.361 52.601 65.371 52.771 65.391 52.924 C 65.411 53.077 65.455 53.197 65.521 53.284 C 65.588 53.371 65.688 53.414 65.821 53.414 ZM 71.645 53.944 L 69.435 53.944 L 69.435 48.274 L 71.635 48.274 L 71.635 48.864 L 70.225 48.864 L 70.225 50.734 L 71.365 50.734 L 71.365 51.294 L 70.225 51.294 L 70.225 53.374 L 71.645 53.374 L 71.645 53.944 ZM 72.605 53.944 L 71.895 53.944 L 72.805 51.814 L 71.915 49.894 L 72.635 49.894 L 73.225 51.174 L 73.755 49.894 L 74.485 49.894 L 73.565 51.904 L 74.505 53.944 L 73.785 53.944 L 73.155 52.574 L 72.605 53.944 ZM 76.03 54.004 C 75.704 54.004 75.454 53.937 75.28 53.804 C 75.114 53.671 75 53.481 74.94 53.234 C 74.88 52.994 74.85 52.714 74.85 52.394 L 74.85 51.464 C 74.85 51.117 74.88 50.824 74.94 50.584 C 75 50.344 75.117 50.161 75.29 50.034 C 75.457 49.907 75.704 49.844 76.03 49.844 C 76.33 49.844 76.56 49.891 76.72 49.984 C 76.88 50.084 76.99 50.227 77.05 50.414 C 77.11 50.601 77.14 50.834 77.14 51.114 L 77.14 51.354 L 76.46 51.354 L 76.46 51.114 C 76.46 50.934 76.45 50.794 76.43 50.694 C 76.404 50.587 76.36 50.511 76.3 50.464 C 76.24 50.417 76.154 50.394 76.04 50.394 C 75.92 50.394 75.827 50.424 75.76 50.484 C 75.694 50.537 75.65 50.631 75.63 50.764 C 75.61 50.897 75.6 51.077 75.6 51.304 L 75.6 52.584 C 75.6 52.924 75.634 53.154 75.7 53.274 C 75.767 53.387 75.884 53.444 76.05 53.444 C 76.177 53.444 76.267 53.417 76.32 53.364 C 76.38 53.304 76.42 53.221 76.44 53.114 C 76.454 53.007 76.46 52.884 76.46 52.744 L 76.46 52.414 L 77.14 52.414 L 77.14 52.694 C 77.14 52.967 77.11 53.201 77.05 53.394 C 76.984 53.594 76.87 53.744 76.71 53.844 C 76.55 53.951 76.324 54.004 76.03 54.004 ZM 78.919 54.004 C 78.599 54.004 78.352 53.941 78.179 53.814 C 78.006 53.687 77.886 53.504 77.819 53.264 C 77.752 53.024 77.719 52.731 77.719 52.384 L 77.719 51.464 C 77.719 51.104 77.756 50.804 77.829 50.564 C 77.896 50.324 78.016 50.144 78.189 50.024 C 78.369 49.904 78.612 49.844 78.919 49.844 C 79.259 49.844 79.509 49.914 79.669 50.054 C 79.829 50.194 79.936 50.394 79.989 50.654 C 80.042 50.921 80.069 51.237 80.069 51.604 L 80.069 51.934 L 78.469 51.934 L 78.469 52.744 C 78.469 52.911 78.486 53.044 78.519 53.144 C 78.546 53.251 78.592 53.327 78.659 53.374 C 78.726 53.421 78.816 53.444 78.929 53.444 C 79.036 53.444 79.119 53.417 79.179 53.364 C 79.239 53.311 79.279 53.234 79.299 53.134 C 79.319 53.034 79.329 52.917 79.329 52.784 L 79.329 52.534 L 80.059 52.534 L 80.059 52.694 C 80.059 53.101 79.972 53.421 79.799 53.654 C 79.626 53.887 79.332 54.004 78.919 54.004 Z M 78.469 51.314 L 78.469 51.524 L 79.329 51.524 L 79.329 51.164 C 79.329 50.997 79.319 50.857 79.299 50.744 C 79.279 50.631 79.242 50.544 79.189 50.484 C 79.129 50.424 79.036 50.394 78.909 50.394 C 78.789 50.394 78.696 50.424 78.629 50.484 C 78.569 50.537 78.526 50.631 78.499 50.764 C 78.479 50.897 78.469 51.081 78.469 51.314 ZM 81.557 53.944 L 80.807 53.944 L 80.807 48.274 L 81.557 48.274 L 81.557 53.944 ZM 83.156 53.944 L 82.406 53.944 L 82.406 48.274 L 83.156 48.274 L 83.156 53.944 ZM 85.054 54.004 C 84.734 54.004 84.487 53.941 84.314 53.814 C 84.14 53.687 84.02 53.504 83.954 53.264 C 83.887 53.024 83.854 52.731 83.854 52.384 L 83.854 51.464 C 83.854 51.104 83.89 50.804 83.964 50.564 C 84.03 50.324 84.15 50.144 84.324 50.024 C 84.504 49.904 84.747 49.844 85.054 49.844 C 85.394 49.844 85.644 49.914 85.804 50.054 C 85.964 50.194 86.07 50.394 86.124 50.654 C 86.177 50.921 86.204 51.237 86.204 51.604 L 86.204 51.934 L 84.604 51.934 L 84.604 52.744 C 84.604 52.911 84.62 53.044 84.654 53.144 C 84.68 53.251 84.727 53.327 84.794 53.374 C 84.86 53.421 84.95 53.444 85.064 53.444 C 85.17 53.444 85.254 53.417 85.314 53.364 C 85.374 53.311 85.414 53.234 85.434 53.134 C 85.454 53.034 85.464 52.917 85.464 52.784 L 85.464 52.534 L 86.194 52.534 L 86.194 52.694 C 86.194 53.101 86.107 53.421 85.934 53.654 C 85.76 53.887 85.467 54.004 85.054 54.004 Z M 84.604 51.314 L 84.604 51.524 L 85.464 51.524 L 85.464 51.164 C 85.464 50.997 85.454 50.857 85.434 50.744 C 85.414 50.631 85.377 50.544 85.324 50.484 C 85.264 50.424 85.17 50.394 85.044 50.394 C 84.924 50.394 84.83 50.424 84.764 50.484 C 84.704 50.537 84.66 50.631 84.634 50.764 C 84.614 50.897 84.604 51.081 84.604 51.314 ZM 87.622 53.944 L 86.872 53.944 L 86.872 49.894 L 87.622 49.894 L 87.622 50.294 C 87.756 50.167 87.902 50.061 88.062 49.974 C 88.229 49.887 88.409 49.844 88.602 49.844 C 88.769 49.844 88.896 49.884 88.982 49.964 C 89.069 50.051 89.129 50.157 89.162 50.284 C 89.196 50.411 89.212 50.537 89.212 50.664 L 89.212 53.944 L 88.462 53.944 L 88.462 50.884 C 88.462 50.737 88.442 50.624 88.402 50.544 C 88.362 50.471 88.276 50.434 88.142 50.434 C 88.062 50.434 87.976 50.457 87.882 50.504 C 87.789 50.551 87.702 50.611 87.622 50.684 L 87.622 53.944 ZM 91.036 54.004 C 90.709 54.004 90.459 53.937 90.286 53.804 C 90.119 53.671 90.006 53.481 89.946 53.234 C 89.886 52.994 89.856 52.714 89.856 52.394 L 89.856 51.464 C 89.856 51.117 89.886 50.824 89.946 50.584 C 90.006 50.344 90.123 50.161 90.296 50.034 C 90.463 49.907 90.709 49.844 91.036 49.844 C 91.336 49.844 91.566 49.891 91.726 49.984 C 91.886 50.084 91.996 50.227 92.056 50.414 C 92.116 50.601 92.146 50.834 92.146 51.114 L 92.146 51.354 L 91.466 51.354 L 91.466 51.114 C 91.466 50.934 91.456 50.794 91.436 50.694 C 91.409 50.587 91.366 50.511 91.306 50.464 C 91.246 50.417 91.159 50.394 91.046 50.394 C 90.926 50.394 90.833 50.424 90.766 50.484 C 90.699 50.537 90.656 50.631 90.636 50.764 C 90.616 50.897 90.606 51.077 90.606 51.304 L 90.606 52.584 C 90.606 52.924 90.639 53.154 90.706 53.274 C 90.773 53.387 90.889 53.444 91.056 53.444 C 91.183 53.444 91.273 53.417 91.326 53.364 C 91.386 53.304 91.426 53.221 91.446 53.114 C 91.459 53.007 91.466 52.884 91.466 52.744 L 91.466 52.414 L 92.146 52.414 L 92.146 52.694 C 92.146 52.967 92.116 53.201 92.056 53.394 C 91.989 53.594 91.876 53.744 91.716 53.844 C 91.556 53.951 91.329 54.004 91.036 54.004 ZM 93.925 54.004 C 93.605 54.004 93.358 53.941 93.185 53.814 C 93.011 53.687 92.891 53.504 92.825 53.264 C 92.758 53.024 92.725 52.731 92.725 52.384 L 92.725 51.464 C 92.725 51.104 92.761 50.804 92.835 50.564 C 92.901 50.324 93.021 50.144 93.195 50.024 C 93.375 49.904 93.618 49.844 93.925 49.844 C 94.265 49.844 94.515 49.914 94.675 50.054 C 94.835 50.194 94.941 50.394 94.995 50.654 C 95.048 50.921 95.075 51.237 95.075 51.604 L 95.075 51.934 L 93.475 51.934 L 93.475 52.744 C 93.475 52.911 93.491 53.044 93.525 53.144 C 93.551 53.251 93.598 53.327 93.665 53.374 C 93.731 53.421 93.821 53.444 93.935 53.444 C 94.041 53.444 94.125 53.417 94.185 53.364 C 94.245 53.311 94.285 53.234 94.305 53.134 C 94.325 53.034 94.335 52.917 94.335 52.784 L 94.335 52.534 L 95.065 52.534 L 95.065 52.694 C 95.065 53.101 94.978 53.421 94.805 53.654 C 94.631 53.887 94.338 54.004 93.925 54.004 Z M 93.475 51.314 L 93.475 51.524 L 94.335 51.524 L 94.335 51.164 C 94.335 50.997 94.325 50.857 94.305 50.744 C 94.285 50.631 94.248 50.544 94.195 50.484 C 94.135 50.424 94.041 50.394 93.915 50.394 C 93.795 50.394 93.701 50.424 93.635 50.484 C 93.575 50.537 93.531 50.631 93.505 50.764 C 93.485 50.897 93.475 51.081 93.475 51.314 Z" transform="matrix(0.9469900131225586, 0, 0, 0.80234694480896, 2.358859062194824, 7.354878902435303)" style="fill: rgb(51, 51, 51); white-space: pre;"/>
  </g>
</svg>